# xmcd CD database file
#
# Track frame offsets:
#	150
#	13045
#	33535
#	49315
#	65502
#	81560
#	94782
#	108242
#	124485
#	141825
#	156505
#	168980
#	193512
#	203675
#
# Disc length: 2988 seconds
#
# Revision: 0
# Processed by: cddbd v1.5.1PL0 Copyright (c) Steve Scherf et al.
# Submitted via: CDex 1.51
#
DISCID=ca0baa0e
DTITLE=Joyce - Joyce - CD2
DYEAR=2001
DGENRE=MPB
TTITLE0=Monsieur Binot-Joyce
TTITLE1=Misterios-Joyce
TTITLE2=Essa Mulher-Joyce
TTITLE3=Corcovado-Joyce
TTITLE4=Chega de Saudade-Joyce
TTITLE5=Desafinado-Aquarela do Brasil-Lets Play That-Joyce
TTITLE6=Samba da zona-Joyce
TTITLE7=Muito Prazer-Joyce
TTITLE8=Havana-me-Joyce
TTITLE9=Ela e carioca-Joyce
TTITLE10=Deixa-Joyce
TTITLE11=Antonio e Ilha Brasil-Joyce
TTITLE12=Tiro Cruzado-Joyce
TTITLE13=O Chines e a Bicicleta-Joyce
EXTD=YEAR: 2001
EXTT0=
EXTT1=
EXTT2=
EXTT3=
EXTT4=
EXTT5=
EXTT6=
EXTT7=
EXTT8=
EXTT9=
EXTT10=
EXTT11=
EXTT12=
EXTT13=
PLAYORDER=
